<?xml version="1.0" encoding="utf-8"?>
<!-- Generator: Adobe Illustrator 25.0.1, SVG Export Plug-In . SVG Version: 6.00 Build 0)  -->
<svg version="1.1" id="Layer_1" xmlns="http://www.w3.org/2000/svg" xmlns:xlink="http://www.w3.org/1999/xlink" x="0px" y="0px"
	 viewBox="0 0 316 407" style="enable-background:new 0 0 316 407;" xml:space="preserve">
<style type="text/css">
	.st0{fill:#D656FF;}
	.st1{fill:#950092;}
	.st2{fill:#E700DD;}
	.st3{fill:#B700FB;}
	.st4{fill:#8F00A4;}
	.st5{fill:url(#SVGID_1_);}
	.st6{fill:none;}
	.st7{fill:none;stroke:#000000;stroke-miterlimit:10;}
	.st8{fill:#FFFFFF;stroke:#000000;stroke-miterlimit:10;}
</style>
<g id="Calque_2">
	<ellipse class="st0" cx="115" cy="270" rx="16" ry="15"/>
	<ellipse class="st1" cx="154.8" cy="224" rx="16" ry="15"/>
	<path class="st2" d="M143,137c0,8.3-7.2,15-16,15c-4,0-9-0.4-10.5-3.7c-1.5-3.3-0.5-7.8-0.5-12.3c0-4.5-1-8,0.6-10.4
		c2-3,6.5-3.6,10.4-3.6C135.8,122,143,128.7,143,137z"/>
	<path class="st3" d="M193,62c0,4.2-1.1,9.1-4.8,10.7C183,75,181.4,73,177,73c-4.4,0-8,2-11.2-0.3c-3.3-2.3-4.8-6.5-4.8-10.7
		c0-8.3,7.2-15,16-15S193,53.7,193,62z"/>
	<ellipse class="st4" cx="131" cy="21" rx="16" ry="15"/>
	
		<linearGradient id="SVGID_1_" gradientUnits="userSpaceOnUse" x1="5" y1="63.75" x2="311" y2="63.75" gradientTransform="matrix(1 0 0 -1 0 408)">
		<stop  offset="0.1349" style="stop-color:#AD33BA"/>
		<stop  offset="0.8078" style="stop-color:#7F3BB8"/>
	</linearGradient>
	<polygon class="st5" points="303,370 310.5,383.5 311,389 303,407 220,406 14,404 8,395 6,387 5,382 18,358 38,332 53,311 
		75.5,281.5 235.5,281.5 	"/>
	<line class="st6" x1="166.7" y1="73.5" x2="187.3" y2="73.5"/>
</g>
<g id="Calque_1">
	<path class="st7" d="M115,228l1.5-133.5c4,0,10,0,25,0h25c14.6,0,23,0,28,0L193,228"/>
	<path class="st7" d="M192.5,227.5l105.2,133.9c14.8,23.6,18.5,22.2,5.4,45.5l-289-2.5c-14.8-23.6-9.3-22,3.7-45.4l97.6-131.5"/>
	<path class="st8" d="M121,280"/>
	<path class="st7" d="M219.8,94.5H86.2c-4.8,0-8.7-3.9-8.7-8.7v-3.6c0-4.8,3.9-8.7,8.7-8.7h133.6c4.8,0,8.7,3.9,8.7,8.7v3.6
		C228.5,90.6,224.6,94.5,219.8,94.5z"/>
</g>
</svg>
