<?xml version="1.0" encoding="utf-8"?>
<!-- Generator: Adobe Illustrator 24.1.2, SVG Export Plug-In . SVG Version: 6.00 Build 0)  -->
<svg version="1.1" xmlns="http://www.w3.org/2000/svg" xmlns:xlink="http://www.w3.org/1999/xlink" x="0px" y="0px"
	 viewBox="0 0 316 407" style="enable-background:new 0 0 316 407;" xml:space="preserve">
<style type="text/css">
	.st0{fill:#2AE4FF;}
	.st1{fill:#15FFCD;}
	.st2{fill:#29C5D1;}
	.st3{fill:#15FFEE;}
	.st4{fill:#35C8FF;}
	.st5{fill:url(#SVGID_1_);}
	.st6{fill:none;stroke:#000000;stroke-miterlimit:10;}
	.st7{fill:#FFFFFF;stroke:#000000;stroke-miterlimit:10;}
</style>
<g id="Calque_2">
	<ellipse class="st0" cx="115" cy="270" rx="16" ry="15"/>
	<ellipse class="st1" cx="153" cy="224" rx="16" ry="15"/>
	<path class="st2" d="M143,137c0,8.28-7.16,15-16,15c-4.03,0-9.03-0.38-10.52-3.7C115,145,116,140.51,116,136c0-4.54-1-8,0.55-10.36
		c1.98-3.01,6.46-3.64,10.45-3.64C135.84,122,143,128.72,143,137z"/>
	<path class="st3" d="M193,62c0,4.19-1.11,9.07-4.78,10.69C183,75,181.37,73,177,73c-4.35,0-8,2-11.19-0.28
		C162.53,70.38,161,66.2,161,62c0-8.28,7.16-15,16-15S193,53.72,193,62z"/>
	<ellipse class="st4" cx="131" cy="21" rx="16" ry="15"/>
	<linearGradient id="SVGID_1_" gradientUnits="userSpaceOnUse" x1="5" y1="344.25" x2="311" y2="344.25">
		<stop  offset="0" style="stop-color:#45CFC8"/>
		<stop  offset="0.1349" style="stop-color:#3EC6CB"/>
		<stop  offset="0.3586" style="stop-color:#2AACD2"/>
		<stop  offset="0.478" style="stop-color:#1E9CD7"/>
		<stop  offset="0.4982" style="stop-color:#1C9DCE"/>
		<stop  offset="0.6174" style="stop-color:#12A59D"/>
		<stop  offset="0.7304" style="stop-color:#0AAB77"/>
		<stop  offset="0.8341" style="stop-color:#05AF5C"/>
		<stop  offset="0.9254" style="stop-color:#01B24B"/>
		<stop  offset="0.9944" style="stop-color:#00B345"/>
	</linearGradient>
	<polygon class="st5" points="303,370 310.49,383.47 311,389 303,407 220,406 14,404 8,395 6,387 5,382 18,358 38,332 53,311 
		75.5,281.5 235.5,281.5 	"/>
	<line class="st3" x1="166.73" y1="73.5" x2="187.27" y2="73.5"/>
</g>
<g id="Calque_1">
	<path class="st6" d="M115,228l1.5-133.5c4,0,10,0,25,0h25c14.55,0,23,0,28,0L193,228"/>
	<path class="st6" d="M192.5,227.5l105.2,133.85c14.79,23.56,18.45,22.16,5.42,45.49l-288.95-2.48
		c-14.79-23.56-9.34-22.03,3.69-45.35l97.64-131.5"/>
	<path class="st7" d="M121,280"/>
	<path class="st6" d="M219.8,94.5H86.2c-4.8,0-8.7-3.9-8.7-8.7v-3.6c0-4.8,3.9-8.7,8.7-8.7h133.6c4.8,0,8.7,3.9,8.7,8.7v3.6
		C228.5,90.6,224.6,94.5,219.8,94.5z"/>
</g>
</svg>
